<?xml version="1.0" encoding="iso-8859-1"?>
<!-- Generator: Adobe Illustrator 16.0.0, SVG Export Plug-In . SVG Version: 6.00 Build 0)  -->
<!DOCTYPE svg PUBLIC "-//W3C//DTD SVG 1.1//EN" "http://www.w3.org/Graphics/SVG/1.1/DTD/svg11.dtd">
<svg version="1.1" id="Capa_1" xmlns="http://www.w3.org/2000/svg" xmlns:xlink="http://www.w3.org/1999/xlink" x="0px" y="0px"
	 width="58.498px" height="58.497px" viewBox="0 0 58.498 58.497" style="enable-background:new 0 0 58.498 58.497;"
	 xml:space="preserve">
<g>
	<g>
		<path d="M12.985,36.703c4.671,4.688,9.342,9.375,14.013,14.062c2.287,2.295,4.423,1.379,6.403-0.751
			c7.231-7.775,14.462-15.551,21.694-23.327c0.461-0.496,5.267-4.692,2.602-5.487c-1.577-0.47-5.274,0.087-8.272,0.133h-0.067
			c-0.002,0-0.004,0.001-0.005,0.001c-2.075,0.026-3.803-0.199-4.22-1.205c0-2.41,1.718-13.405-1.905-13.405
			c-6.165,0-12.33,0-18.496,0c-2.754,0-10.177-1.503-11.579,1.89c-0.815,1.973-0.009,5.908-0.009,8.024c0,1.301,0,2.602,0,3.903
			c0,0.811-2.514,0.413-3.707,0.413c-1.529,0-12.87-0.727-8.399,3.758C5.02,28.709,9.003,32.706,12.985,36.703z M17.131,38.358
			c-0.024-0.023-0.048-0.049-0.073-0.072c0.042-0.049,0.089-0.083,0.124-0.145c2.065-3.588,4.159-7.154,6.319-10.672
			c2.476-4.034,5.091-7.985,7.596-11.995c0.293-0.468,0.294-0.468,0.005,0.002c-4.639,7.555-9.249,15.126-13.892,22.679
			C17.173,38.219,17.157,38.29,17.131,38.358z M22.116,43.4c-0.235-0.261-0.415-0.457-0.515-0.558
			c-0.081-0.081-0.162-0.162-0.243-0.243c4.047-6.122,8.073-12.259,12.131-18.375c0.307-0.461,0.377-0.423,0.151,0.081
			c-0.471,1.052-0.964,2.092-1.483,3.12c-3.16,5.347-6.421,10.627-9.936,15.746C22.174,43.243,22.148,43.322,22.116,43.4z
			 M33.141,46.439c-0.408,1.123-0.817,2.245-1.227,3.368c-0.327,0.353-0.654,0.704-0.982,1.056
			c-0.264,0.283-0.781,0.142-1.439-0.265c0.026-0.03,0.05-0.057,0.077-0.089c1.147-1.373,2.257-2.773,3.32-4.204
			C33.22,45.862,33.33,45.921,33.141,46.439z M31.682,45.324c-0.319,0.45-0.376,0.415-0.122-0.073c1.36-2.613,2.737-5.22,4.16-7.806
			c0.427-0.774,0.855-1.551,1.285-2.325c0.267-0.482,0.338-0.451,0.155,0.069c-0.36,1.031-0.728,2.062-1.095,3.091
			c-0.185,0.521-0.573,1.323-0.869,1.789C34.083,41.824,32.914,43.588,31.682,45.324z M54.535,23.544
			c0.204-0.434,0.408-0.869,0.611-1.304c0.056-0.121,0.081-0.235,0.083-0.34c0.108,0.016,0.214,0.034,0.317,0.055
			c-0.052,0.08-0.104,0.16-0.153,0.247c-0.263,0.459-0.526,0.918-0.788,1.378C54.332,24.06,54.3,24.044,54.535,23.544z
			 M50.024,22.224c0.075-0.146,0.094-0.278,0.086-0.4c1.081,0,2.162,0,3.242,0c-0.133,0.127-0.25,0.264-0.321,0.417
			c-1.217,2.602-2.454,5.194-3.675,7.79c-0.315,0.672-0.622,1.348-0.93,2.022c-1.558,1.674-3.113,3.348-4.669,5.021
			c-0.752,0.81-1.504,1.618-2.257,2.428C44.282,33.71,47.096,27.936,50.024,22.224z M47.526,21.838
			c0.13-0.006,0.265-0.014,0.388-0.014c0.104,0,0.206,0,0.311,0c-0.133,0.122-0.25,0.254-0.324,0.399
			c-3.73,7.267-7.276,14.633-10.8,22.01c-0.558,0.601-1.115,1.199-1.672,1.799c0.757-2.087,1.514-4.173,2.263-6.262
			c0.188-0.52,0.581-1.315,0.877-1.781c3.24-5.08,6.164-10.364,8.874-15.76C47.513,22.086,47.533,21.957,47.526,21.838z
			 M44.532,21.776c0.293,0.081,0.612,0.118,0.941,0.131c-0.094,0.1-0.177,0.208-0.234,0.321c-1.156,2.298-2.347,4.581-3.581,6.839
			c-0.265,0.485-0.327,0.457-0.133-0.059c0.766-2.023,1.59-4.018,2.424-6.005C44.138,22.557,44.378,22.053,44.532,21.776z
			 M43.387,11.777c0.11,2.892-0.093,6.5-0.163,8.143c-0.815,1.567-1.647,3.126-2.488,4.679c-4.655,7.775-9.175,15.628-13.596,23.54
			c-0.072,0.128-0.114,0.273-0.135,0.424c-1.316-1.248-2.702-2.742-3.753-3.9c0.085-0.062,0.167-0.132,0.236-0.227
			c4.075-5.585,7.952-11.314,11.027-17.448C37.497,21.934,40.408,16.836,43.387,11.777z M40.103,7.594c0.727,0,1.452,0,2.178,0
			c0.11,0,0.21,0.044,0.302,0.125c-0.069,0.066-0.135,0.135-0.185,0.207c-1.097,1.584-2.185,3.172-3.266,4.764
			c-0.312,0.457-0.873,0.893-1.237,1.032c-0.298,0.114-0.542,0.241-0.622,0.326c-0.141,0.151-0.274,0.308-0.408,0.465
			c-0.221,0.261-0.197,0.073,0.054-0.419c1.039-2.03,2.07-4.064,3.102-6.098C40.093,7.849,40.112,7.716,40.103,7.594z M37.868,8.065
			c-4.013,7.921-8.055,15.83-12.351,23.587c-1.025,1.83-2.049,3.65-3.105,5.427c-0.818,1.377-1.618,2.767-2.413,4.156
			c-0.541-0.542-1.081-1.085-1.622-1.627c0.044-0.048,0.095-0.085,0.132-0.146c6.446-10.468,12.807-20.991,19.285-31.44
			C38.084,7.553,38.117,7.573,37.868,8.065z M35.616,7.594c0.156,0,0.312,0,0.468,0c-0.131,0.11-0.244,0.229-0.325,0.359
			c-0.903,1.453-1.81,2.905-2.709,4.36c-0.29,0.47-0.292,0.469-0.009-0.004c0.854-1.427,1.683-2.867,2.479-4.325
			C35.598,7.842,35.62,7.713,35.616,7.594z M32.881,7.594c0.284,0,0.567,0,0.853,0c-0.133,0.12-0.25,0.25-0.327,0.393
			c-4.249,7.897-9.512,15.259-14.105,22.958c-1.161,1.945-2.306,3.903-3.442,5.867c-0.035,0.062-0.049,0.132-0.073,0.198
			c-0.525-0.527-1.05-1.054-1.575-1.581c0.043-0.047,0.091-0.082,0.127-0.143c1.006-1.744,2.012-3.488,3.015-5.234
			c4.782-7.615,9.932-15,15.373-22.152C32.809,7.791,32.859,7.689,32.881,7.594z M29.263,7.594c0.561,0,1.122,0,1.682,0
			c-0.121,0.094-0.227,0.197-0.31,0.305c-1.21,1.59-2.41,3.189-3.592,4.801c-0.326,0.445-0.384,0.41-0.133-0.083
			c0.778-1.528,1.538-3.065,2.28-4.61C29.263,7.856,29.276,7.72,29.263,7.594z M17.383,7.943c0.081-0.125,0.119-0.242,0.129-0.349
			c0.49,0,0.98,0,1.469,0c-0.132,0.118-0.249,0.245-0.327,0.385c-1.122,2.019-2.257,4.033-3.395,6.044
			c-0.081-0.877-0.158-1.713-0.176-2.446C15.843,10.361,16.606,9.147,17.383,7.943z M22.876,7.943
			c0.081-0.125,0.119-0.242,0.129-0.349c1.457,0,2.913,0,4.369,0c-0.132,0.125-0.25,0.262-0.322,0.414
			c-3.597,7.532-7.664,14.84-11.83,22.101c-0.78,1.241-1.544,2.492-2.302,3.746c-0.037,0.062-0.051,0.134-0.076,0.202
			c-1.107-1.111-2.213-2.222-3.32-3.332c0.042-0.048,0.092-0.083,0.126-0.144C14.001,22.987,18.151,15.259,22.876,7.943z
			 M8.503,22.18c0.081-0.128,0.117-0.247,0.125-0.356c0.77,0,1.54,0,2.309,0c-0.131,0.115-0.247,0.241-0.326,0.378
			c-1.131,1.979-2.263,3.96-3.393,5.941c-0.035,0.06-0.046,0.132-0.069,0.198c-0.473-0.475-0.947-0.95-1.42-1.425
			c-0.07-0.071-0.141-0.141-0.211-0.212c0.049-0.048,0.103-0.086,0.145-0.148C6.629,25.111,7.573,23.65,8.503,22.18z M2.402,23.323
			c0.193-0.37,0.387-0.738,0.583-1.107c0.062-0.116,0.116-0.226,0.164-0.327c1.028-0.19,2.426-0.065,2.7-0.065
			c0.287,0,0.573,0,0.86,0c-0.13,0.109-0.244,0.228-0.326,0.357c-0.658,1.039-1.322,2.072-1.996,3.099
			c-0.041,0.062-0.06,0.133-0.088,0.201c-0.514-0.516-1.028-1.032-1.542-1.548c-0.186-0.186-0.323-0.353-0.435-0.51
			C2.347,23.386,2.38,23.365,2.402,23.323z"/>
	</g>
</g>
<g>
</g>
<g>
</g>
<g>
</g>
<g>
</g>
<g>
</g>
<g>
</g>
<g>
</g>
<g>
</g>
<g>
</g>
<g>
</g>
<g>
</g>
<g>
</g>
<g>
</g>
<g>
</g>
<g>
</g>
</svg>
